<svg width="24" height="24" viewBox="0 0 24 24" xmlns="http://www.w3.org/2000/svg">
  <path fill="#EA4335" d="M12 10.2v3.9h5.4c-.2 1.3-1.6 3.8-5.4 3.8-3.2 0-5.8-2.6-5.8-5.9s2.6-5.9 5.8-5.9c1.8 0 3 .7 3.7 1.3l2.5-2.4C16.7 3.6 14.5 2.6 12 2.6 7.4 2.6 3.7 6.3 3.7 11s3.7 8.4 8.3 8.4c4.8 0 8-3.4 8-8.2 0-.6-.1-1.1-.2-1.5H12z"/>
  <path fill="#34A853" d="M5.1 14.2l-3 2.3C3.8 19.2 7.6 21.4 12 21.4c2.2 0 4-0.7 5.4-1.9l-3.1-2.4c-.8.5-1.9.8-3.3.8-2.6 0-4.8-1.7-5.6-4z"/>
  <path fill="#FBBC05" d="M2.1 7.5C1.7 8.6 1.5 9.7 1.5 11s.2 2.4.6 3.5l3-2.3c-.2-.5-.3-1.1-.3-1.7 0-.6.1-1.2.3-1.7l-3-2.3z"/>
  <path fill="#4285F4" d="M12 2.6c2.5 0 4.7 1 6.3 2.6l-2.5 2.4c-.7-.7-1.9-1.5-3.8-1.5-2.6 0-4.9 1.8-5.6 4.3l-3-2.3C4.4 4.7 7.9 2.6 12 2.6z"/>
</svg>
